<svg width="99" height="33" viewBox="0 0 99 33" fill="none" xmlns="http://www.w3.org/2000/svg">
<rect x="0.15" y="0.15" width="98.7" height="32.7" stroke="white" stroke-width="0.3"/>
<path d="M19.246 20.282L19.136 17.598L27.87 8.6H30.378L23.624 15.728L22.392 17.092L19.246 20.282ZM17.31 24V8.6H19.51V24H17.31ZM28.222 24L21.908 16.652L23.382 15.024L30.796 24H28.222ZM37.9878 24V18.104L38.4938 19.468L31.8718 8.6H34.2258L39.7918 17.774H38.5158L44.1038 8.6H46.2818L39.6818 19.468L40.1658 18.104V24H37.9878ZM50.3916 24V8.6H56.8816C58.5243 8.6 59.969 8.92267 61.2156 9.568C62.477 10.2133 63.4523 11.1153 64.1416 12.274C64.8456 13.4327 65.1976 14.7747 65.1976 16.3C65.1976 17.8253 64.8456 19.1673 64.1416 20.326C63.4523 21.4847 62.477 22.3867 61.2156 23.032C59.969 23.6773 58.5243 24 56.8816 24H50.3916ZM52.5916 22.086H56.7496C58.0256 22.086 59.1256 21.844 60.0496 21.36C60.9883 20.876 61.7143 20.2013 62.2276 19.336C62.741 18.456 62.9976 17.444 62.9976 16.3C62.9976 15.1413 62.741 14.1293 62.2276 13.264C61.7143 12.3987 60.9883 11.724 60.0496 11.24C59.1256 10.756 58.0256 10.514 56.7496 10.514H52.5916V22.086ZM70.7674 24V8.6H81.6354V10.514H72.9674V22.086H81.9434V24H70.7674ZM72.7694 17.114V15.244H80.6894V17.114H72.7694Z" fill="#FFFDFD"/>
</svg>
